PathFileType	4	(X/Y/Z)	 s03c0001.trc
DataRate	CameraRate	NumFrames	NumMarkers	Units	OrigDataRate	OrigDataStartFrame	OrigNumFrames
200	200	6	49	mm	200	1	2000
Frame#	Time	racr			lacr			c7			jug			rlel			rdr			llel			ldr			s2			lic			ric			lasi			rasi			rpsi			lpsi			rgt			lgt			rth1			rth2			rth3			rth4			rlfc			rmfc			rsh1			rsh2			rsh3			rsh4			rlmal			rmmal			rcal			rtoe			rmt5			rmt1			lth1			lth2			lth4			lth3			llfc			lmfc			lsh1			lsh2			lsh3			lsh4			llmal			lmmal			lcal			ltoe			lmt1			lmt5			
		X1	Y1	Z1	X2	Y2	Z2	X3	Y3	Z3	X4	Y4	Z4	X5	Y5	Z5	X6	Y6	Z6	X7	Y7	Z7	X8	Y8	Z8	X9	Y9	Z9	X10	Y10	Z10	X11	Y11	Z11	X12	Y12	Z12	X13	Y13	Z13	X14	Y14	Z14	X15	Y15	Z15	X16	Y16	Z16	X17	Y17	Z17	X18	Y18	Z18	X19	Y19	Z19	X20	Y20	Z20	X21	Y21	Z21	X22	Y22	Z22	X23	Y23	Z23	X24	Y24	Z24	X25	Y25	Z25	X26	Y26	Z26	X27	Y27	Z27	X28	Y28	Z28	X29	Y29	Z29	X30	Y30	Z30	X31	Y31	Z31	X32	Y32	Z32	X33	Y33	Z33	X34	Y34	Z34	X35	Y35	Z35	X36	Y36	Z36	X37	Y37	Z37	X38	Y38	Z38	X39	Y39	Z39	X40	Y40	Z40	X41	Y41	Z41	X42	Y42	Z42	X43	Y43	Z43	X44	Y44	Z44	X45	Y45	Z45	X46	Y46	Z46	X47	Y47	Z47	X48	Y48	Z48	X49	Y49	Z49	
1	0.0050	251.934711	1571.637258	585.033624	250.380116	1587.093304	200.256573	185.525908	1606.960085	397.681631	351.968314	1555.460313	396.146075	176.631859	1299.427543	692.428908	270.334749	1118.214342	886.592371	174.047080	1315.478452	99.542601	256.431344	1124.280172	-104.849924	152.954239	1066.501516	376.403057	288.380752	1165.308058	197.110980	281.478688	1150.930707	568.730183	351.436565	1104.434429	239.251269	352.087738	1100.765093	522.217770	155.681622	1106.353848	425.868612	158.847708	1114.770162	343.039751	265.048156	1008.779654	563.345425	278.331042	1015.816502	188.577169	278.793511	870.286856	578.123910	310.218385	786.548602	571.833779	300.491326	703.945160	557.794789	346.287260	792.700274	567.838405	295.911445	577.538513	525.985461	327.492014	557.415620	419.694480	242.059609	412.481579	553.459821	253.346357	323.430030	548.641201	217.996023	243.063571	542.965915	288.135263	319.599640	531.702583	209.409507	103.446399	531.669309	247.395402	122.073818	450.409272	165.097293	55.955289	483.645183	469.206111	91.192021	504.800824	353.047138	43.423847	563.650615	379.347524	81.439521	454.887112	290.584648	866.092654	175.343407	315.409342	782.234934	182.774486	350.833480	785.412908	184.662836	294.586855	698.185170	196.243007	310.679177	576.967234	221.727528	333.352399	558.729864	335.379276	251.207782	413.210466	185.052678	263.524589	329.068694	193.340198	228.794266	244.600573	196.923179	298.910584	324.539131	212.838380	220.355129	110.734227	206.062496	259.177767	124.921011	292.899220	172.265665	55.031110	258.168819	478.721533	92.638105	234.275760	389.995161	73.430376	286.700710	357.953242	50.867381	172.718183	
2	0.0100	251.964762	1571.655748	585.054344	250.429195	1587.089505	200.222921	185.527244	1606.969269	397.678438	351.968299	1555.480865	396.145086	176.659205	1299.431227	692.445724	270.377733	1118.252239	886.630023	174.038120	1315.502191	99.526041	256.457973	1124.325325	-104.897362	152.947971	1066.506473	376.416271	288.385633	1165.304575	197.106827	281.476709	1150.938391	568.740604	351.437192	1104.440650	239.252191	352.098036	1100.763837	522.211544	155.658780	1106.361450	425.839385	158.822337	1114.767823	343.039645	265.051305	1008.775702	563.351266	278.306308	1015.818063	188.589175	278.805341	870.292731	578.116350	310.216662	786.535631	571.825165	300.510786	703.927877	557.778205	346.289669	792.705812	567.837979	295.918771	577.537549	525.990565	327.495270	557.401875	419.723208	242.052849	412.488856	553.463866	253.336473	323.433203	548.665514	217.967878	243.079899	542.969793	288.117283	319.591936	531.697643	209.417867	103.462985	531.666113	247.382836	122.079854	450.406310	165.097293	55.955289	483.645183	469.225772	91.178825	504.814536	353.011913	43.446200	563.644992	379.336440	81.443646	454.886931	290.584762	866.097541	175.339155	315.397892	782.232438	182.786885	350.837384	785.406555	184.661929	294.585348	698.191608	196.237907	310.665785	576.955982	221.720092	333.329730	558.729750	335.363516	251.210688	413.208732	185.070731	263.523815	329.058377	193.325201	228.800132	244.581619	196.929268	298.910471	324.531771	212.841754	220.358664	110.736664	206.071161	259.168212	124.920069	292.915184	172.249954	55.025016	258.174593	478.704169	92.659496	234.271419	390.031122	73.468732	286.703980	357.930774	50.858553	172.717835	
3	0.0150	251.961190	1571.673121	585.069283	250.414952	1587.102448	200.218851	185.500834	1606.967264	397.724509	351.982488	1555.488132	396.146920	176.676897	1299.449074	692.473079	270.393938	1118.277687	886.668176	174.057270	1315.524265	99.499660	256.475945	1124.365574	-104.938360	152.924611	1066.516010	376.433499	288.359744	1165.326749	197.111034	281.478688	1150.930707	568.730183	351.416460	1104.442795	239.266850	352.086199	1100.775581	522.217625	155.687492	1106.410637	425.887900	158.807209	1114.762602	343.064674	265.039731	1008.776631	563.353797	278.292581	1015.821698	188.601437	278.817663	870.307920	578.147072	310.217138	786.540406	571.823476	300.523414	703.942965	557.794676	346.303241	792.690086	567.834466	295.932560	577.523522	525.999160	327.476633	557.405621	419.723071	242.054710	412.478351	553.463930	253.352801	323.424705	548.660450	217.974032	243.069383	542.963815	288.137074	319.593312	531.702826	209.415986	103.452714	531.668766	247.382556	122.067214	450.410568	165.091435	55.973422	483.644272	469.223342	91.152327	504.799098	353.027794	43.432538	563.637591	379.350347	81.428030	454.885112	290.565627	866.095979	175.349637	315.401106	782.238862	182.800085	350.815028	785.418327	184.656949	294.586291	698.191866	196.244743	310.680085	576.955985	221.723374	333.313715	558.730541	335.340583	251.196041	413.206507	185.081600	263.518579	329.077746	193.325723	228.802831	244.589327	196.921564	298.913287	324.535523	212.831238	220.358092	110.727980	206.073133	259.159924	124.914237	292.907000	172.275800	55.041729	258.186923	479.914127	92.795323	235.273888	390.006621	73.441516	286.715133	357.955866	50.868253	172.716587	
4	0.0200	251.967843	1571.699257	585.082624	247.956962	1587.004992	205.833805	185.503502	1606.953570	397.700189	353.133731	1555.095499	397.989996	176.693370	1299.467152	692.520252	270.427672	1118.324600	886.736144	174.055909	1315.542475	99.491179	257.453607	1124.051235	-103.772036	154.268748	1065.733696	376.223947	290.246135	1164.681538	198.406614	281.288963	1150.879830	568.825284	351.442889	1104.528169	239.307251	352.084745	1100.772284	522.201251	155.693605	1106.404830	425.894924	158.807209	1114.762602	343.064674	265.057263	1008.771093	563.358994	278.276436	1015.815932	188.602922	278.811460	870.310477	578.167235	310.238026	787.014086	572.412473	300.833800	703.880761	557.859427	346.306067	792.696417	567.833067	295.936565	577.522255	525.993923	327.495189	557.433807	419.703667	242.048303	412.488723	553.475771	253.361504	323.420209	548.662737	217.980656	243.071902	542.973520	288.728093	319.752271	531.766702	208.493296	103.896169	531.538889	249.065323	121.707408	451.033841	165.097293	55.955289	483.645183	468.026506	91.730529	504.098136	353.003216	43.457468	563.633665	379.705104	81.372740	454.867558	291.454059	865.435532	176.565392	315.736763	782.124485	184.267318	350.959661	785.495315	184.248329	294.577577	698.198544	196.239901	310.317054	577.295970	221.712173	333.329490	558.741281	335.351315	251.977657	412.562883	186.077921	263.512827	329.064117	193.349804	228.805348	244.579278	196.925484	298.908385	324.538332	212.821444	220.360280	110.737130	206.084944	259.175039	124.912438	292.905532	172.271967	55.017416	258.187507	479.934174	92.816212	235.283937	390.015319	73.437977	286.705492	357.931936	50.857021	172.718428	
5	0.0250	251.856935	1571.475366	585.145050	247.649602	1586.339529	207.307829	185.451711	1606.533120	397.784816	352.254472	1554.920021	399.598898	176.644618	1299.254698	692.499974	270.472936	1118.314336	886.719455	173.991293	1315.685335	99.583503	257.307836	1123.638979	-102.678061	154.314576	1065.783156	376.210922	289.629975	1164.052584	200.167917	281.334104	1150.881776	568.805287	351.400936	1104.483127	239.295239	353.220013	1100.037456	523.934435	155.571675	1106.788973	425.921917	158.547688	1115.022582	343.201921	265.116908	1008.849911	563.415426	278.353882	1015.816046	188.904537	278.835641	870.372012	578.074777	310.069467	786.957315	572.304269	300.937169	703.910804	557.736233	346.209251	792.613000	567.789511	296.037231	577.446153	525.884676	327.382703	557.121832	419.492626	242.173080	412.326732	553.553424	254.576596	322.449138	549.560031	218.101672	242.940450	542.936837	290.150220	319.062716	532.311050	208.242869	103.610523	531.413462	249.882155	120.953162	451.709084	164.958784	55.784207	483.636031	468.270468	91.509503	503.974989	353.131231	43.371751	563.582016	381.469998	80.710766	455.411814	291.473952	864.993900	177.871545	315.312469	781.521789	186.294828	350.962733	785.435565	185.374985	294.624077	698.134936	196.378840	310.341854	577.135125	221.245586	334.048908	557.794042	335.677760	252.048833	412.015768	186.972209	263.732215	328.955475	193.777612	228.910320	244.572943	196.902528	299.041957	323.919065	213.546265	220.433781	110.354143	205.891107	259.361000	124.818090	292.913523	171.751522	54.775285	258.267112	479.682954	91.910708	235.937894	391.322095	72.949989	287.335527	358.092680	50.898977	172.611310	
6	0.0300	251.935922	1571.668967	585.110276	246.725072	1587.567190	204.374295	185.486531	1606.882882	397.765925	351.986992	1555.508018	396.121248	176.754559	1299.445578	692.510679	270.462673	1118.392098	886.815206	174.032637	1315.692627	99.523603	256.516324	1124.533944	-105.010693	154.265611	1065.792057	376.227717	288.173846	1165.395297	197.055951	281.337655	1150.884194	568.793653	351.374820	1104.548567	239.288782	352.047898	1100.786220	522.162626	155.662220	1106.585160	425.955982	158.695589	1114.914478	343.188253	265.138144	1008.857611	563.422629	278.288594	1015.836828	188.703741	278.872911	870.306530	578.102350	310.253222	786.985718	572.348831	300.933925	703.921885	557.739788	346.311334	792.691042	567.795839	296.028015	577.472124	525.866449	327.515584	557.339536	419.651727	242.136138	412.432470	553.497443	253.439225	323.282892	548.640347	218.108478	242.948674	542.948996	287.530702	320.154682	531.151203	208.431214	103.753647	531.481707	248.572776	122.096254	450.633266	165.031636	55.874192	483.640845	468.154070	91.598029	504.029389	353.152908	43.390460	563.593836	378.697072	81.798269	454.543211	290.622527	866.045219	175.509135	314.956873	783.054008	182.805681	350.866537	785.533760	184.729766	294.590399	698.165176	196.280008	310.370531	577.228215	221.563361	332.233686	559.087505	334.888500	251.238249	413.175284	185.055012	263.657811	329.020068	193.576966	228.852833	244.572243	196.918441	298.303694	324.822649	212.019769	220.415707	110.599648	205.985174	259.354057	124.829790	292.915497	172.197557	54.892082	258.170382	479.154818	92.514293	234.580956	389.229687	73.556824	286.167831	358.083757	50.898571	172.619189	
